<?xml version="1.0" encoding="utf-8"?>
<!-- Generator: Adobe Illustrator 28.1.0, SVG Export Plug-In . SVG Version: 6.00 Build 0)  -->
<svg version="1.1" id="Layer_1" xmlns="http://www.w3.org/2000/svg" xmlns:xlink="http://www.w3.org/1999/xlink" x="0px" y="0px"
	 viewBox="0 0 380 360.5" style="enable-background:new 0 0 380 360.5;" xml:space="preserve">
<style type="text/css">
	.st0{fill:#FA6149;}
</style>
<g id="BG">
</g>
<g id="Layer_3">
	<path class="st0" d="M327.7,170.8c3.4-7.6,4.7-15.5,3.1-20.6s-3.3-7.6-2.4-11.5s14.8-8,20.6-9.6c9.5-2.6,17.8-4.5,25.2-5
		c3.5-0.2,4.5,1.7,2.2,3.4c-3.6,2.7-11.3,8.8-19.8,14.4C343.7,150.4,346.1,161.6,327.7,170.8z M313.9,158
		c-0.9,7.8-10.3,23.4-10.3,23.4s-0.7-2.6-1.1-4.1s-1.6-1.8-1.6-1.8s-3.5,13.9-7.9,17.3c-9.6,7.4-15.7,4.4-25.3,25.3
		c-2,4.4-0.3,13.6-1.7,15.7c0.7,2.3,1.5,6.4,0,12c-4.7-1.5-13.6-2.3-13.6-2.3s6.8,3.4,11.1,5.6c-0.4,2.3-6.8,15.9-8.4,17.3
		c-7.1-2.7-15.8-4.4-15.8-4.4s6.2,3.9,13,7.8c-1,2.6-9.5,13-11.6,14.1c-6-5.2-14-8.1-14-8.1s4.3,4.4,12,11.2
		c-8.4,6.5-18.7,4.5-26.5,2.9c-0.8-0.2-3.5-5.4-3.5-5.4s-2.3,5.3-7.8,1.5c-3.5-2.4-6.7-7-6.5-11.7c0.2-5,4.1-11.6,16.3-18.2
		c7.4-4,10.9-12.9,10.4-23.2c0.5-3.1,2.8-19.3,4.2-26.6c1.8-9.2,6-26.9,13.9-37.9c6.6-9.1,16.1-13.4,32.9-19
		c18.7-6.2,30.1-6.5,40-7.5C312,141.6,315.2,147.6,313.9,158z M273.9,174.2c4.7-4.9,6.3-11,6.3-11s-15.4,3.2-21.6,4.2
		c-11,1.7-12.2,4.5-16.1,9.7c-3,4-3.3,7-2.2,13.5c0.3,2,1.7,2.9,2.9,5.1c1.3,2.4,1.6,6.9,2.4,6.8c1.2-0.1,5.7-4.8,10.8-6.2
		C265.2,193.8,267.3,181.1,273.9,174.2z M253.5,195.4c-4.3,0-7.8-4-7.8-8.9s3.6-8,7.8-8.9c7.8-1.8,6.9,3.4,7.8,8.9
		C262.1,191.3,257.8,195.4,253.5,195.4z M252.6,188.8c0-0.4-0.3-0.7-0.7-0.7c-0.4,0-0.7,0.3-0.7,0.7c0,0.4,0.3,0.7,0.7,0.7
		C252.3,189.4,252.6,189.1,252.6,188.8z M255.6,188.9c0-0.6-0.4-1.1-0.8-1.1s-0.8,0.5-0.8,1.1s0.4,1.1,0.8,1.1
		S255.6,189.5,255.6,188.9z M255.6,185.8c0-1.3-0.8-2.3-1.9-2.3c-1,0-1.9,1-1.9,2.3s0.8,2.3,1.9,2.3
		C254.7,188.1,255.6,187.1,255.6,185.8z M52.3,170.8c-3.4-7.6-4.7-15.5-3.1-20.6s3.3-7.6,2.4-11.5s-14.8-8-20.6-9.6
		c-9.5-2.6-17.8-4.5-25.2-5c-3.5-0.2-4.5,1.7-2.2,3.4c3.6,2.7,11.3,8.8,19.8,14.4C36.3,150.4,33.9,161.6,52.3,170.8z M68,141.6
		c9.8,1,21.3,1.4,40,7.5c16.8,5.5,26.4,9.9,32.9,19c7.9,11,12.1,28.7,13.9,37.9c1.4,7.4,3.7,23.6,4.2,26.6
		c-0.5,10.3,3,19.2,10.4,23.2c12.2,6.6,16.2,13.2,16.3,18.2c0.2,4.7-3,9.3-6.5,11.7c-5.5,3.8-7.8-1.5-7.8-1.5s-2.7,5.3-3.5,5.4
		c-7.8,1.6-18.1,3.6-26.5-2.9c7.7-6.8,12-11.2,12-11.2s-8.1,2.9-14,8.1c-2-1.1-10.6-11.5-11.6-14.1c6.8-3.9,13-7.8,13-7.8
		s-8.7,1.7-15.8,4.4c-1.6-1.4-8-15-8.4-17.3c4.3-2.2,11.1-5.6,11.1-5.6s-8.9,0.8-13.6,2.3c-1.5-5.6-0.7-9.7,0-12
		c-1.4-2,0.3-11.3-1.7-15.7c-9.6-20.9-15.7-17.9-25.3-25.3c-4.4-3.4-7.9-17.3-7.9-17.3s-1.1,0.3-1.6,1.8c-0.4,1.5-1.1,4.1-1.1,4.1
		s-9.3-15.6-10.3-23.4C64.8,147.6,68,141.6,68,141.6z M123.6,196.2c5.1,1.4,9.6,6.1,10.8,6.2c0.8,0.1,1.1-4.4,2.4-6.8
		c1.2-2.1,2.5-3.1,2.9-5.1c1.2-6.5,0.8-9.4-2.2-13.5c-3.8-5.2-5.1-8-16.1-9.7c-6.3-1-21.6-4.2-21.6-4.2s1.7,6.1,6.3,11
		C112.7,181.1,114.8,193.8,123.6,196.2z M118.7,186.4c0.9-5.6,0-10.7,7.8-8.9c4.2,1,7.8,4,7.8,8.9s-3.5,8.9-7.8,8.9
		C122.2,195.4,117.9,191.3,118.7,186.4z M128,189.4c0.4,0,0.7-0.3,0.7-0.7c0-0.4-0.3-0.7-0.7-0.7s-0.7,0.3-0.7,0.7
		C127.4,189.1,127.7,189.4,128,189.4z M125.2,189.9c0.4,0,0.8-0.5,0.8-1.1s-0.4-1.1-0.8-1.1s-0.8,0.5-0.8,1.1
		C124.4,189.5,124.8,189.9,125.2,189.9z M126.3,188.1c1,0,1.9-1,1.9-2.3s-0.8-2.3-1.9-2.3c-1,0-1.9,1-1.9,2.3
		C124.4,187.1,125.3,188.1,126.3,188.1z M214,233.7c-2.1-3.4-6.3-4.1-12.5-4.6c-5.6-0.5-11.5-0.4-11.5-0.4s-5.9,0-11.5,0.4
		c-6.2,0.5-10.4,1.3-12.5,4.6c-2.4,3.8-3.5,12,10.2,21c0.7,0.5,1.1-1.4-1-3.4c-3.2-3.1-4.9-13.2-2.9-12.7
		c4.9,1.4,10.2,10.1,8.1,16.7c-0.5,1.7,3.4,4.8,5.2,5.5c2.8,1.1,4.5,1.1,4.5,1.1s1.7,0,4.5-1.1c1.8-0.7,5.7-3.8,5.2-5.5
		c-2.1-6.5,3.2-15.3,8.1-16.7c2-0.6,0.3,9.6-2.9,12.7c-2.1,2-1.6,3.9-1,3.4C217.5,245.7,216.4,237.6,214,233.7z M370.6,147.3
		c0.9,8.9-0.9,17.4-2.6,18.7c-0.1-3-0.8-5.3-1.8-7.1c-1.3-2.6-3-3.7-3-3.7s1.8,7.6-0.3,30.3c-1.3,14.4-10.1,28.9-10.1,28.9
		s0.2-5.9-2.1-13.1c-2-6.1-6.5-10-6.5-10s3.7,12.7,4.2,18.1c3.9,40.7-28.1,62.2-28.1,62.2s0.8-4.9-1-13.8c-1.3-6.8-6-10.8-6-10.8
		c2.4,4.9,3.9,16.2,0.5,23.4c-2.9,6.2-6.8,8.9-13.3,15.3c-7.2,7.1-23.3,13.8-23.3,13.8s0.9-9.2-0.3-11c0.1,1.8-4.3,12.7-9.6,15.3
		c-4.9,2.3-12.1,7.7-15.5,13.8c0.6-5.9,1.2-11.2,2.1-15.9c-7.3,10.4-19.1,25.9-31,33.5c0.9-7.2,2.6-11.3,0-16.4
		c-1.5,13.3-16.5,26.1-16.5,26.1s3.2-14.4,1.7-21.8c-10.6,29-18.1,34.3-18.1,34.3s-7.5-5.3-18.1-34.3c-1.5,7.3,1.7,21.8,1.7,21.8
		s-15-12.8-16.5-26.1c-2.6,5.1-0.9,9.2,0,16.4c-11.9-7.7-23.7-23.1-31-33.5c0.9,4.7,1.5,10,2.1,15.9c-3.4-6.1-10.5-11.4-15.5-13.8
		c-5.4-2.6-9.8-13.4-9.6-15.3c-1.3,1.8-0.3,11-0.3,11s-16.2-6.7-23.3-13.8c-6.5-6.4-10.4-9.2-13.3-15.3c-3.4-7.2-1.9-18.5,0.5-23.4
		c0,0-4.7,3.9-6,10.8c-1.7,8.9-1,13.8-1,13.8s-31.9-21.5-28.1-62.2c0.5-5.4,4.2-18.1,4.2-18.1s-4.5,4-6.5,10
		c-2.3,7.2-2.1,13.1-2.1,13.1S18.3,200,17,185.6c-2-22.8-0.3-30.3-0.3-30.3s-1.7,1.1-3,3.7c-0.9,1.8-1.7,4.1-1.8,7.1
		c-1.7-1.2-3.5-9.8-2.6-18.7c0.7-6.7,2.9-8,2.9-8s10.7,5.7,16,15.3c10.4,19,26.4,22.6,30.9,24.1c0.6-4.1-7.1-17.4-5.4-26.8
		c1.5-8.2,6.5-8.6,2.2-16.4c-2.6-4.7-13.4-8.4-23.4-10.9c-2.5-0.6-7.4-1.6-8.9-2c-6.1-1.4-10-1.6-13.1-5.4c-2.8-3.5-2-7-2-7
		s6,2.6,12.3-1.5c8.1-5.2-1.7-14,12.2-26.4c8.6-7.7,19.8-6.1,19.8-6.1S46,71.8,38,72.2c-7.4,0.3-13,1.8-21,11.4
		c4.2-19.5,13.7-26.4,23.6-31.7c9.2-4.9,24-6.4,34-5.6c0,0-3.7-5-10.4-7.1c-9.1-3-15.1-2.2-19.7-0.5c3.4-6.5,15.7-12.6,32.4-13.6
		c19.8-1.2,36.5,5.7,36.5,5.7s1.1-3.4-5.5-7.4c-8.3-5-19.1-5.8-23.5-4.2c2.9-3.8,15.3-10,37.9-6.5c13.9,2.2,19.9,4.7,19.9,4.7
		s-0.2-3.9-3.5-6.5c-3.1-2.5-7.1-3.6-10.5-4.2c2.2-1.6,15.1-3,27.6-3.9c15.8-1.1,34.3-1.2,34.3-1.2s18.5,0,34.3,1.2
		C236.9,3.7,249.8,5,252,6.7c-3.4,0.6-7.4,1.7-10.5,4.2c-3.3,2.6-3.5,6.5-3.5,6.5s6-2.5,19.9-4.7c22.5-3.5,34.9,2.7,37.9,6.5
		c-4.5-1.5-15.2-0.8-23.5,4.2c-6.6,4-5.5,7.4-5.5,7.4s16.6-7,36.5-5.7c16.8,1,29,7.1,32.4,13.6c-4.6-1.6-10.6-2.5-19.7,0.5
		c-6.7,2.2-10.4,7.1-10.4,7.1c10-0.8,24.8,0.7,34,5.6c9.9,5.3,19.4,12.2,23.6,31.7c-7.9-9.6-13.5-11.1-21-11.4
		c-8-0.4-14.8,4.1-14.8,4.1s11.3-1.6,19.8,6.1c13.9,12.4,4.1,21.2,12.2,26.4c6.3,4,12.3,1.5,12.3,1.5s0.7,3.5-2,7
		c-3,3.8-6.9,4-13.1,5.4c-1.6,0.4-6.5,1.4-8.9,2c-10,2.5-20.8,6.3-23.4,10.9c-4.3,7.7,0.7,8.1,2.2,16.4c1.7,9.4-6,22.7-5.4,26.8
		c4.5-1.5,20.5-5.1,30.9-24.1c5.3-9.6,16-15.3,16-15.3S369.9,140.6,370.6,147.3z M214.8,94.8h0.4c1.5-6.1,2.7-12,4-18
		c1.4-5.9,2.2-11.9,4.1-17.7c1.7-5.8,4.4-11.2,7.7-16.3c3.4-5.1,7.3-9.8,12-13.8l-0.2-0.3c-5,3.6-9.4,8.1-13.3,13
		c-3.8,5-7,10.5-9.1,16.4c-2.2,5.9-4.1,11.9-5,18.1C214.5,82.3,214.1,88.5,214.8,94.8z M202.8,181.8h0.4c2.6-11.4,5.6-22.7,9.2-33.7
		s7.5-21.9,12.8-32.2c5.4-10.1,12.7-19.4,20.9-27.5c8.2-8.2,17.3-15.7,27.1-22l-0.2-0.3C262.8,71.9,253.4,79,244.7,87
		c-8.6,8-16.3,17.1-22.3,27.4c-5.8,10.3-10.7,21.2-13.8,32.6c-1.6,5.7-2.9,11.4-3.9,17.2S203,175.9,202.8,181.8z M137,29
		c4.6,4,8.6,8.8,12,13.8c3.4,5.1,6,10.5,7.7,16.3c1.8,5.8,2.7,11.8,4.1,17.7c1.3,5.9,2.5,11.9,4,18h0.4c0.7-6.2,0.4-12.5-0.4-18.7
		c-0.8-6.2-2.8-12.2-5-18.1c-2.2-5.9-5.3-11.5-9.1-16.4c-3.9-4.9-8.3-9.3-13.3-13L137,29z M106.8,66.4c9.8,6.3,18.9,13.7,27.1,22
		c8.2,8.2,15.4,17.4,20.9,27.5c5.3,10.3,9.2,21.2,12.8,32.2s6.6,22.3,9.2,33.7h0.4c-0.2-5.9-0.9-11.7-1.9-17.5s-2.3-11.6-3.9-17.2
		c-3.2-11.4-8-22.3-13.8-32.6c-6-10.3-13.7-19.4-22.3-27.4c-8.7-8-18.1-15-28.3-20.9L106.8,66.4z M63.8,96.7
		c7.5,1.7,14.8,4.3,21.4,8.1c6.7,3.6,12.3,8.8,18.1,13.9c5.7,5.1,11.1,10.6,16.6,16.2l0.3-0.2c-1.9-3.5-4-6.8-6.4-9.9
		c-2.4-3.1-5-6.1-7.7-8.9c-5.5-5.7-12.2-10.3-19.4-13.8c-7.1-3.6-14.8-5.8-22.5-7.2c-7.8-1.2-15.6-1.7-23.4-0.9v0.4
		C48.5,94,56.3,94.9,63.8,96.7z M205.1,304.9c-2.6,0.7-5.1,0.7-7.6,0.9c-2.5,0.1-5,0-7.5,0l0,0l0,0c-2.5,0-5,0.1-7.5,0
		s-5-0.1-7.6-0.9c0.8,1.1,2.1,1.8,3.3,2.5c1.2,0.6,2.5,1.1,3.8,1.4c2.6,0.7,5.3,1,8,1l0,0l0,0c2.7,0,5.3-0.3,8-1
		c1.3-0.3,2.6-0.8,3.8-1.4C203,306.7,204.2,306,205.1,304.9z M315.8,137c-11.3,0.2-17.5,0.8-29.3,3c-17.4,3.2-24.3,6.4-37.3,12.2
		c-12.2,5.5-20.2,15.3-23.7,29.6c-0.6,2.5-1.3,5.4-2,8.4c0,0.1,0,0.1,0,0.2c-0.1,0.6-0.3,1.3-0.4,1.9c0,0.2-0.1,0.3-0.1,0.5
		c-0.1,0.6-0.3,1.2-0.4,1.8c0,0.1,0,0.2-0.1,0.3c-0.2,0.7-0.3,1.5-0.5,2.2c0,0.1,0,0.2-0.1,0.3c-0.1,0.7-0.3,1.3-0.4,2
		c-3,14.6-5.6,29.3-5.6,29.3s-1.3-1.5-3.4-2.2c2-13.7-0.4-24.1-0.4-24.1s-1.8,21.2-3.1,23.3c-2.4-0.4-3.7-0.3-6-0.5
		c-2.6-0.2-4.3-0.2-6.6-0.3c0.3-3.3-1-5.7-1-5.7s-1,5.7-1.5,5.7c-2,0-4.1,0-4.1,0l0,0c0,0-2.1,0.1-4.1,0c-0.4,0-1.5-5.7-1.5-5.7
		s-1.3,2.5-1,5.7c-2.3,0.1-4,0.1-6.6,0.3c-2.3,0.2-3.6,0-6,0.5c-1.3-2-3.1-23.3-3.1-23.3s-2.4,10.4-0.4,24.1
		c-2.1,0.7-3.4,2.2-3.4,2.2s-2.6-14.7-5.6-29.3c-0.1-0.7-0.3-1.4-0.4-2c0-0.1,0-0.2-0.1-0.3c-0.2-0.7-0.3-1.5-0.5-2.2
		c0-0.1,0-0.2-0.1-0.3c-0.1-0.6-0.3-1.2-0.4-1.8c0-0.2-0.1-0.3-0.1-0.5c-0.1-0.7-0.3-1.3-0.4-1.9c0-0.1,0-0.1,0-0.2
		c-0.7-3-1.3-5.9-2-8.4c-3.6-14.3-11.5-24.2-23.7-29.6c-12.9-5.8-19.9-9-37.3-12.2c-11.8-2.2-18-2.8-29.3-3
		c-6.2,15.6-2.9,30.5,7.3,45.8c4.3,6.5,5.7,12.7,11.3,18.8c1.1,1.2,11.2,4.2,13.2,6s12.7,27.7,11.9,36c0.3,1.1,0.6,2.3,1,3.6
		c-2.8,0.8-8.3,2.4-13.8,4.2c-13.1,4.4-25.9,10.7-25.2,10.8c0,0,15.4-4.3,24.5-7.1c7-2.2,12.6-3.4,15.6-4c1.7,5.6,4.1,11.9,7.1,17.8
		c-1.3,0.5-2.9,1.2-5,2.1c-8.9,3.9-21.7,12.6-21.7,12.6s10.5-4.1,22.9-8.5c2.4-0.8,4.4-1.5,6.1-2c1.5,2.5,3.1,4.8,4.9,6.9
		c1.8,2,4.3,5.3,7.9,8.8c-1,0.7-2.1,1.4-2.8,1.9c-2.9,2.2-11.7,10.6-11.7,10.6s9-4.9,12.4-7c1.7-1,3.4-2.1,4.8-3
		c3.9,3.4,8.9,6.9,15.3,9.7c8.2,3.6,14-2.4,21.3-5.3c7.7-3,13.7-5.2,13.7-5.2l4.7-0.5l4.7,0.5c0,0,6,2.2,13.7,5.2
		c7.4,2.8,13.2,8.8,21.3,5.3c6.4-2.8,11.4-6.3,15.3-9.7c1.4,0.9,3.1,2,4.8,3c3.4,2.1,12.4,7,12.4,7s-8.8-8.4-11.7-10.6
		c-0.7-0.5-1.7-1.2-2.8-1.9c3.6-3.5,6.1-6.8,7.9-8.8c1.8-2.1,3.4-4.4,4.9-6.9c1.7,0.5,3.7,1.2,6.1,2c12.4,4.3,22.9,8.5,22.9,8.5
		s-12.7-8.7-21.7-12.6c-2.1-0.9-3.7-1.6-5-2.1c3-5.9,5.4-12.2,7.1-17.8c3,0.6,8.7,1.8,15.6,4c9.1,2.8,24.5,7.1,24.5,7.1
		c0.6-0.1-12.1-6.4-25.2-10.8c-5.5-1.8-11-3.4-13.8-4.2c0.4-1.3,0.7-2.5,1-3.6c-0.9-8.3,9.9-34.2,11.9-36s12.1-4.8,13.2-6
		c5.5-6.2,6.9-12.3,11.3-18.8C318.7,167.5,322.1,152.6,315.8,137z M339.2,94.3v-0.4c-7.8-0.8-15.7-0.4-23.4,0.9
		c-7.7,1.4-15.4,3.7-22.5,7.2s-13.8,8.1-19.4,13.8c-2.8,2.8-5.4,5.8-7.7,8.9c-2.4,3.1-4.6,6.4-6.4,9.9l0.3,0.2
		c5.5-5.6,10.9-11.1,16.6-16.2c5.7-5.1,11.3-10.3,18.1-13.9c6.6-3.8,13.9-6.3,21.4-8.1C323.7,94.9,331.5,94,339.2,94.3z"/>
</g>
</svg>
